<svg xmlns="http://www.w3.org/2000/svg" width="128" height="128" viewBox="0 0 128 128"><path d="M305.016 224.064v252.192l200.778-38.103V315.277c0-5.144 4.48-9.14 9.59-8.553l24.7 3.822a8.61 8.61 0 0 1 7.628 8.553v142.747a8.61 8.61 0 0 1-6.8 8.417l-219.787 47.258a77.494 77.494 0 0 1-32.235.072L71.462 471.86a8.61 8.61 0 0 1-6.834-8.202l-3.756-144.974a8.608 8.608 0 0 1 7.852-8.798l184.692-16.23a8.61 8.61 0 0 0 7.207-5.296l27.824-67.573c3.59-8.72 16.57-6.152 16.57 3.277zm-246.233-82.57L.825 265.38c-2.832 6.054 2.014 12.885 8.663 12.213l217.66-21.993a8.608 8.608 0 0 0 7.004-5.073l70.035-157.78-239.16 43.928a8.612 8.612 0 0 0-6.244 4.82zm245.405-48.747l74.106 162.712a8.608 8.608 0 0 0 7.145 5.012l217.25 17.47c6.546.527 11.247-6.177 8.52-12.153l-56.657-124.213a8.61 8.61 0 0 0-6.308-4.9l-244.057-43.93z"/></svg>