<svg xmlns="http://www.w3.org/2000/svg" width="128" height="128" viewBox="0 0 128 128"><path d="M307.27 38.173l14.356 14.357L361.03 0c31.28 16.386 60.657 37.722 86.947 64.018 26.29 26.29 47.63 55.66 64.022 86.95l-52.542 39.4 14.368 14.358-25.85 25.845-25.85-25.844-157.94 226.86S114.87 420.106 22.976 512l-5.742-5.75 150.994-150.995c11.828 5.01 28.89 5.57 38.53-4.067 12.693-12.694 12.693-33.264 0-45.953-12.686-12.69-33.255-12.69-45.944 0-9.638 9.644-11.958 23.83-6.943 35.663L2.876 491.9 0 489.017C91.896 397.12 80.41 247.8 80.41 247.8L307.27 89.86l-25.85-25.845 25.85-25.844z"/></svg>