<svg xmlns="http://www.w3.org/2000/svg" viewBox="0 0 100 125"><path d="M91.97 21.95L78.05 8.03l-2.548-2.55-2.55 2.55L8.03 72.95 5.48 75.5l2.55 2.55 13.92 13.92 2.55 2.55 2.55-2.55 64.92-64.92 2.55-2.55-2.55-2.55zM24.5 89.42L10.58 75.5l4.037-4.037 5.844 5.846 1.594-1.596-5.844-5.844 2.06-2.06 3.134 3.135 1.594-1.593-3.135-3.135 2.058-2.06 5.845 5.845 1.594-1.594-5.845-5.844 2.06-2.06 3.134 3.136 1.592-1.594-3.135-3.136 2.06-2.06 5.844 5.846 1.595-1.594-5.845-5.842 2.06-2.06 3.134 3.136 1.594-1.594-3.135-3.135 2.06-2.06 5.843 5.845 1.594-1.594-5.844-5.844 2.058-2.058 3.135 3.135 1.592-1.593-3.134-3.135 2.06-2.06 5.844 5.845 1.594-1.594-5.846-5.843 2.06-2.06 3.134 3.136 1.594-1.593-3.135-3.135 2.06-2.06 5.843 5.845 1.594-1.594-5.844-5.845 2.06-2.06 3.134 3.136 1.594-1.593-3.135-3.135 2.058-2.06 5.844 5.845 1.594-1.594-5.844-5.844 15.46-15.46L89.42 24.5 24.5 89.42z"/><path d="M71.916 27.607c1.998 2 5.252 2 7.25 0 2-2 2-5.252 0-7.25a5.13 5.13 0 0 0-7.25 0 5.13 5.13 0 0 0 0 7.25zm5.338-5.34a2.422 2.422 0 1 1-3.426 3.428 2.422 2.422 0 1 1 3.426-3.427z"/></svg>