<?xml version="1.0" standalone="no"?>
<!DOCTYPE svg PUBLIC "-//W3C//DTD SVG 20010904//EN"
 "http://www.w3.org/TR/2001/REC-SVG-20010904/DTD/svg10.dtd">
<svg version="1.0" xmlns="http://www.w3.org/2000/svg"
 width="263.000000pt" height="282.000000pt" viewBox="0 0 263.000000 282.000000"
 preserveAspectRatio="xMidYMid meet">
<metadata>
Created by potrace 1.13, written by Peter Selinger 2001-2015
</metadata>
<g transform="translate(0.000000,282.000000) scale(0.100000,-0.100000)"
fill="#000000" stroke="none">
<path d="M1555 2723 c-11 -3 -101 -27 -200 -55 -99 -27 -289 -79 -423 -114
-134 -35 -260 -73 -282 -84 -21 -11 -51 -36 -68 -56 -51 -62 -210 -353 -443
-814 -95 -189 -104 -210 -107 -272 -5 -79 9 -127 51 -175 34 -38 117 -98 187
-133 58 -29 55 -25 36 -54 -13 -21 -16 -54 -16 -181 0 -167 7 -201 52 -243 23
-21 423 -241 723 -398 232 -121 328 -140 465 -94 75 25 495 231 713 349 264
143 271 153 272 402 0 226 23 200 -332 364 -312 143 -357 164 -428 195 -27 12
-88 40 -135 62 -47 22 -95 44 -108 49 l-24 9 20 33 c69 114 459 781 483 826
39 73 40 132 2 168 -45 41 -224 169 -277 197 -47 25 -107 32 -161 19z m423
-249 c12 -8 22 -23 22 -32 0 -39 -66 -158 -385 -697 -77 -130 -151 -232 -162
-222 -4 5 202 369 356 630 131 222 154 277 116 277 -13 0 -250 -73 -800 -246
-156 -49 -187 -68 -244 -152 -94 -140 -531 -928 -531 -958 0 -13 5 -26 10 -29
16 -10 11 -25 -8 -25 -43 0 -55 55 -26 113 37 73 489 875 519 921 44 69 80
100 145 130 71 32 920 304 955 305 6 1 21 -6 33 -15z m-108 -121 c0 -10 -21
-56 -46 -103 -69 -129 -405 -690 -413 -690 -4 0 -14 12 -22 26 -8 15 -44 54
-80 88 l-67 61 50 90 c132 237 241 426 250 431 22 14 294 114 311 114 10 0 17
-7 17 -17z m-431 -180 c-78 -144 -231 -418 -235 -422 -5 -5 -558 -221 -561
-218 -3 3 197 373 243 449 37 60 90 113 133 130 37 16 433 137 449 137 8 1 -3
-28 -29 -76z m-168 -516 c68 -54 131 -147 159 -232 27 -80 39 -68 -130 -136
-63 -26 -274 -112 -468 -193 -195 -80 -357 -146 -360 -146 -4 0 -24 32 -45 71
l-37 71 92 162 c50 88 99 172 108 185 12 17 97 55 311 141 162 65 299 118 306
119 7 1 36 -18 64 -42z m271 -231 c64 -20 175 -68 427 -188 58 -27 179 -83
270 -125 220 -100 251 -123 237 -179 -9 -36 -75 -75 -441 -263 -542 -278 -528
-272 -586 -278 -71 -7 -118 12 -396 163 -120 65 -317 169 -438 230 -121 62
-230 121 -242 132 -29 26 -20 52 16 52 19 0 30 -8 41 -33 12 -27 38 -44 150
-101 74 -37 263 -135 420 -216 307 -160 388 -194 442 -183 52 9 166 63 528
246 428 217 460 237 460 283 0 31 -33 49 -320 179 -129 59 -266 121 -304 138
-99 46 -322 155 -316 156 3 0 26 -6 52 -13z m178 -129 c195 -87 466 -209 567
-255 46 -20 93 -45 105 -54 50 -37 9 -64 -415 -276 -497 -247 -538 -263 -604
-242 -34 11 -808 394 -853 422 -46 29 -35 34 863 401 90 37 98 42 93 63 -9 35
18 44 62 23 20 -9 102 -47 182 -82z"/>
<path d="M1359 1246 c-144 -51 -236 -147 -295 -310 -20 -55 -27 -64 -79 -95
-48 -29 -54 -36 -39 -44 34 -19 151 -21 198 -3 55 21 67 36 96 113 38 107 113
193 201 233 77 35 238 19 231 -23 -2 -11 4 -17 17 -17 11 0 43 -9 71 -20 66
-26 70 -25 70 8 0 34 -42 77 -117 121 -113 65 -237 79 -354 37z m177 -5 c-3
-4 -28 -11 -55 -14 -122 -14 -248 -113 -315 -247 -20 -40 -36 -79 -36 -86 0
-21 -18 -17 -25 6 -9 30 11 91 53 156 80 124 195 189 340 193 24 1 41 -3 38
-8z m129 -30 c13 -5 -12 -10 -70 -13 -180 -9 -306 -103 -375 -279 -26 -65 -40
-82 -59 -70 -12 8 -12 16 4 58 54 146 154 250 284 298 39 15 184 18 216 6z"/>
</g>
</svg>
