<?xml version="1.0" standalone="no"?>
<!DOCTYPE svg PUBLIC "-//W3C//DTD SVG 20010904//EN"
 "http://www.w3.org/TR/2001/REC-SVG-20010904/DTD/svg10.dtd">
<svg version="1.0" xmlns="http://www.w3.org/2000/svg"
 width="263.000000pt" height="282.000000pt" viewBox="0 0 263.000000 282.000000"
 preserveAspectRatio="xMidYMid meet">
<metadata>
Created by potrace 1.13, written by Peter Selinger 2001-2015
</metadata>
<g transform="translate(0.000000,282.000000) scale(0.100000,-0.100000)"
fill="#000000" stroke="none">
<path d="M1555 2723 c-11 -3 -101 -27 -200 -55 -99 -27 -289 -79 -423 -114
-134 -35 -260 -73 -282 -84 -21 -11 -51 -36 -68 -56 -51 -62 -210 -353 -443
-814 -95 -189 -104 -210 -107 -272 -5 -79 9 -127 51 -175 34 -38 117 -98 187
-133 58 -29 55 -25 36 -54 -13 -21 -16 -54 -16 -181 0 -167 7 -201 52 -243 23
-21 423 -241 723 -398 232 -121 328 -140 465 -94 75 25 495 231 713 349 264
143 271 153 272 402 0 226 23 200 -332 364 -312 143 -357 164 -428 195 -27 12
-88 40 -135 62 -47 22 -95 44 -108 49 l-24 9 20 33 c69 114 459 781 483 826
39 73 40 132 2 168 -45 41 -224 169 -277 197 -47 25 -107 32 -161 19z m423
-249 c12 -8 22 -24 22 -34 0 -30 -80 -179 -280 -519 -163 -277 -253 -411 -267
-398 -4 5 202 370 356 630 131 222 154 277 116 277 -8 0 -160 -45 -338 -101
-681 -213 -635 -193 -706 -297 -94 -140 -531 -928 -531 -958 0 -13 5 -26 10
-29 16 -10 11 -25 -8 -25 -43 0 -55 55 -26 113 37 73 489 875 519 921 44 69
80 100 145 130 71 32 920 304 955 305 6 1 21 -6 33 -15z m-108 -121 c0 -10
-21 -56 -46 -103 -69 -129 -405 -690 -413 -690 -4 0 -14 12 -22 26 -8 15 -44
54 -80 88 l-67 61 50 90 c126 227 241 425 250 431 22 14 294 114 311 114 10 0
17 -7 17 -17z m-431 -180 c-78 -144 -231 -418 -235 -422 -5 -5 -558 -221 -561
-218 -3 3 197 373 243 449 37 60 90 113 133 130 37 16 433 137 449 137 8 1 -3
-28 -29 -76z m-168 -516 c68 -54 131 -147 159 -232 27 -80 39 -68 -130 -136
-63 -26 -274 -112 -468 -193 -195 -80 -357 -146 -360 -146 -4 0 -24 32 -45 71
l-37 71 92 162 c50 88 99 172 108 185 12 17 97 55 311 141 162 65 299 118 306
119 7 1 36 -18 64 -42z m271 -231 c63 -20 169 -66 413 -181 50 -24 171 -80
270 -125 236 -108 265 -130 251 -186 -9 -36 -74 -75 -441 -263 -536 -276 -528
-272 -586 -278 -71 -7 -118 12 -396 163 -120 65 -317 169 -438 230 -121 62
-230 121 -242 132 -29 26 -20 52 16 52 19 0 30 -8 41 -33 12 -27 38 -44 150
-101 74 -37 263 -135 420 -216 307 -160 388 -194 442 -183 52 9 166 63 528
246 428 217 460 237 460 283 0 31 -33 49 -320 179 -129 59 -266 121 -304 138
-99 46 -322 155 -316 156 3 0 26 -6 52 -13z m183 -132 c493 -219 634 -284 666
-306 53 -36 12 -63 -413 -275 -355 -177 -484 -236 -535 -247 -54 -12 -83 1
-670 297 -221 111 -270 140 -267 154 5 17 164 85 877 376 90 37 98 42 93 63
-8 32 19 46 53 28 14 -8 103 -48 196 -90z"/>
<path d="M1644 1072 c-139 -137 -244 -193 -404 -218 -58 -9 -116 -20 -130 -26
-44 -18 3 -31 89 -25 143 10 270 69 390 183 57 53 141 154 128 154 -2 0 -35
-31 -73 -68z"/>
</g>
</svg>
