<svg xmlns="http://www.w3.org/2000/svg" viewBox="0 0 444.185 444.184"><path d="M404.198 205.738a3.505 3.505 0 0 0-3.165-.467s-119.01 40.478-122.26 41.6c-2.726.937-4.488-1.42-4.488-1.42l-37.448-46.255a3.502 3.502 0 0 0-6.222 2.2v167.892a3.5 3.5 0 0 0 4.837 3.233l168.045-69.438a3.498 3.498 0 0 0 2.163-3.234v-91.266a3.503 3.503 0 0 0-1.462-2.844z"/><path d="M443.487 168.22l-32.07-42.858a3.497 3.497 0 0 0-1.852-1.27L223.14 71.456c-.62-.176-1.464-.125-2.095.05L34.62 124.14c-.74.21-1.39.655-1.85 1.27L.697 168.27a3.502 3.502 0 0 0 1.678 5.413l157.64 53.502a3.503 3.503 0 0 0 3.843-1.11l44.127-54.39 13.082 3.6c.607.168 1.25.168 1.857 0v-.008c.064-.016.13-.023.192-.04l13.082-3.6 44.128 54.39a3.502 3.502 0 0 0 3.843 1.11l157.64-53.503a3.505 3.505 0 0 0 2.22-2.28 3.506 3.506 0 0 0-.543-3.133zm-221.295-7.84l-133.69-36.524L222.19 86.33l133.494 37.478-133.494 36.573z"/><path d="M211.238 198.147a3.5 3.5 0 0 0-3.89 1.098L169.902 245.5s-1.763 2.356-4.487 1.42c-3.252-1.12-122.26-41.598-122.26-41.598a3.5 3.5 0 0 0-4.627 3.313V299.9a3.5 3.5 0 0 0 2.163 3.233l168.043 69.438a3.495 3.495 0 0 0 3.282-.324 3.5 3.5 0 0 0 1.555-2.91V201.444a3.5 3.5 0 0 0-2.332-3.298z"/></svg>