<svg xmlns="http://www.w3.org/2000/svg" viewBox="0 -256 1850 1850"><path d="M1686.78 388.237q0-81-21.5-143t-55-98.5q-33.5-36.5-81.5-59.5t-94-31q-46-8-98-8t-112 25.5q-60 25.5-110.5 64t-86.5 72q-36 33.5-60 61.5-18 22-49 22t-49-22q-24-28-60-61.5t-86.5-72q-50.5-38.5-110.5-64t-112-25.5q-52 0-98 8t-94 31q-48 23-81.5 59.5t-55 98.5q-21.5 62-21.5 143 0 168 187 355l581 560 580-559q188-188 188-356zm128 0q0 221-229 450l-623 600q-18 18-44 18t-44-18l-624-602q-10-8-27.5-26t-55.5-65.5q-38-47.5-68-97.5t-53.5-121q-23.5-71-23.5-138 0-220 127-344t351-124q62 0 126.5 21.5t120 58q55.5 36.5 95.5 68.5t76 68q36-36 76-68t95.5-68.5q55.5-36.5 120-58t126.5-21.5q224 0 351 124t127 344z"/></svg>