<svg xmlns="http://www.w3.org/2000/svg" viewBox="0 0 564 564"><path d="M307.269 38.173l14.357 14.357L361.031 0c31.279 16.386 60.656 37.722 86.946 64.018 26.29 26.29 47.631 55.661 64.022 86.951l-52.541 39.4 14.368 14.357-25.85 25.845-25.85-25.845-157.94 226.86S114.871 420.105 22.975 512l-5.741-5.751 150.994-150.994c11.828 5.01 28.891 5.57 38.529-4.067 12.694-12.694 12.694-33.264 0-45.953-12.685-12.689-33.254-12.689-45.943 0-9.638 9.644-11.958 23.83-6.943 35.663L2.875 491.901 0 489.016c91.896-91.896 80.409-241.217 80.409-241.217l226.86-157.937-25.85-25.845 25.85-25.844z"/></svg>