<svg version="1" xmlns="http://www.w3.org/2000/svg" width="350.667" height="376" viewBox="0 0 263 282"><path d="M155.5 9.7c-1.1.3-10.1 2.7-20 5.5-9.9 2.7-28.9 7.9-42.3 11.4-13.4 3.5-26 7.3-28.2 8.4-2.1 1.1-5.1 3.6-6.8 5.6-5.1 6.2-21 35.3-44.3 81.4-9.5 18.9-10.4 21-10.7 27.2-.5 7.9.9 12.7 5.1 17.5 3.4 3.8 11.7 9.8 18.7 13.3 5.8 2.9 5.5 2.5 3.6 5.4-1.3 2.1-1.6 5.4-1.6 18.1 0 16.7.7 20.1 5.2 24.3 2.3 2.1 42.3 24.1 72.3 39.8 23.2 12.1 32.8 14 46.5 9.4 7.5-2.5 49.5-23.1 71.3-34.9 26.4-14.3 27.1-15.3 27.2-40.2 0-22.6 2.3-20-33.2-36.4-31.2-14.3-35.7-16.4-42.8-19.5-2.7-1.2-8.8-4-13.5-6.2-4.7-2.2-9.5-4.4-10.8-4.9l-2.4-.9 2-3.3c6.9-11.4 45.9-78.1 48.3-82.6 3.9-7.3 4-13.2.2-16.8-4.5-4.1-22.4-16.9-27.7-19.7-4.7-2.5-10.7-3.2-16.1-1.9zm42.3 24.9c1.2.8 2.2 2.4 2.2 3.4 0 3-8 17.9-28 51.9-16.3 27.7-25.3 41.1-26.7 39.8-.4-.5 20.2-37 35.6-63C194 44.5 196.3 39 192.5 39c-.8 0-16 4.5-33.8 10.1-68.1 21.3-63.5 19.3-70.6 29.7-9.4 14-53.1 92.8-53.1 95.8 0 1.3.5 2.6 1 2.9 1.6 1 1.1 2.5-.8 2.5-4.3 0-5.5-5.5-2.6-11.3 3.7-7.3 48.9-87.5 51.9-92.1 4.4-6.9 8-10 14.5-13 7.1-3.2 92-30.4 95.5-30.5.6-.1 2.1.6 3.3 1.5zM187 46.7c0 1-2.1 5.6-4.6 10.3-6.9 12.9-40.5 69-41.3 69-.4 0-1.4-1.2-2.2-2.6-.8-1.5-4.4-5.4-8-8.8l-6.7-6.1 5-9c12.6-22.7 24.1-42.5 25-43.1C156.4 55 183.6 45 185.3 45c1 0 1.7.7 1.7 1.7zm-43.1 18c-7.8 14.4-23.1 41.8-23.5 42.2-.5.5-55.8 22.1-56.1 21.8-.3-.3 19.7-37.3 24.3-44.9 3.7-6 9-11.3 13.3-13 3.7-1.6 43.3-13.7 44.9-13.7.8-.1-.3 2.8-2.9 7.6zm-16.8 51.6c6.8 5.4 13.1 14.7 15.9 23.2 2.7 8 3.9 6.8-13 13.6-6.3 2.6-27.4 11.2-46.8 19.3-19.5 8-35.7 14.6-36 14.6-.4 0-2.4-3.2-4.5-7.1l-3.7-7.1 9.2-16.2c5-8.8 9.9-17.2 10.8-18.5 1.2-1.7 9.7-5.5 31.1-14.1 16.2-6.5 29.9-11.8 30.6-11.9.7-.1 3.6 1.8 6.4 4.2zm27.1 23.1c6.3 2 16.9 6.6 41.3 18.1 5 2.4 17.1 8 27 12.5 23.6 10.8 26.5 13 25.1 18.6-.9 3.6-7.4 7.5-44.1 26.3-53.6 27.6-52.8 27.2-58.6 27.8-7.1.7-11.8-1.2-39.6-16.3-12-6.5-31.7-16.9-43.8-23-12.1-6.2-23-12.1-24.2-13.2-2.9-2.6-2-5.2 1.6-5.2 1.9 0 3 .8 4.1 3.3 1.2 2.7 3.8 4.4 15 10.1 7.4 3.7 26.3 13.5 42 21.6 30.7 16 38.8 19.4 44.2 18.3 5.2-.9 16.6-6.3 52.8-24.6 42.8-21.7 46-23.7 46-28.3 0-3.1-3.3-4.9-32-17.9-12.9-5.9-26.6-12.1-30.4-13.8-9.9-4.6-32.2-15.5-31.6-15.6.3 0 2.6.6 5.2 1.3zm18.3 13.2c49.3 21.9 63.4 28.4 66.6 30.6 5.3 3.6 1.2 6.3-41.3 27.5-35.5 17.7-48.4 23.6-53.5 24.7-5.4 1.2-8.3-.1-67-29.7-22.1-11.1-27-14-26.7-15.4.5-1.7 16.4-8.5 87.7-37.6 9-3.7 9.8-4.2 9.3-6.3-.8-3.2 1.9-4.6 5.3-2.8 1.4.8 10.3 4.8 19.6 9z"/><path d="M164.4 174.8c-13.9 13.7-24.4 19.3-40.4 21.8-5.8.9-11.6 2-13 2.6-4.4 1.8.3 3.1 8.9 2.5 14.3-1 27-6.9 39-18.3 5.7-5.3 14.1-15.4 12.8-15.4-.2 0-3.5 3.1-7.3 6.8z"/></svg>
