<svg version="1" xmlns="http://www.w3.org/2000/svg" width="350.667" height="376" viewBox="0 0 263.000000 282.000000"><path d="M155.5 9.7c-1.1.3-10.1 2.7-20 5.5-9.9 2.7-28.9 7.9-42.3 11.4-13.4 3.5-26 7.3-28.2 8.4-2.1 1.1-5.1 3.6-6.8 5.6-5.1 6.2-21 35.3-44.3 81.4-9.5 18.9-10.4 21-10.7 27.2-.5 7.9.9 12.7 5.1 17.5 3.4 3.8 11.7 9.8 18.7 13.3 5.8 2.9 5.5 2.5 3.6 5.4-1.3 2.1-1.6 5.4-1.6 18.1 0 16.7.7 20.1 5.2 24.3 2.3 2.1 42.3 24.1 72.3 39.8 23.2 12.1 32.8 14 46.5 9.4 7.5-2.5 49.5-23.1 71.3-34.9 26.4-14.3 27.1-15.3 27.2-40.2 0-22.6 2.3-20-33.2-36.4-31.2-14.3-35.7-16.4-42.8-19.5-2.7-1.2-8.8-4-13.5-6.2-4.7-2.2-9.5-4.4-10.8-4.9l-2.4-.9 2-3.3c6.9-11.4 45.9-78.1 48.3-82.6 3.9-7.3 4-13.2.2-16.8-4.5-4.1-22.4-16.9-27.7-19.7-4.7-2.5-10.7-3.2-16.1-1.9zm42.3 24.9c1.2.8 2.2 2.3 2.2 3.2 0 3.9-6.6 15.8-38.5 69.7-7.7 13-15.1 23.2-16.2 22.2-.4-.5 20.2-36.9 35.6-63C194 44.5 196.3 39 192.5 39c-1.3 0-25 7.3-80 24.6-15.6 4.9-18.7 6.8-24.4 15.2-9.4 14-53.1 92.8-53.1 95.8 0 1.3.5 2.6 1 2.9 1.6 1 1.1 2.5-.8 2.5-4.3 0-5.5-5.5-2.6-11.3 3.7-7.3 48.9-87.5 51.9-92.1 4.4-6.9 8-10 14.5-13 7.1-3.2 92-30.4 95.5-30.5.6-.1 2.1.6 3.3 1.5zM187 46.7c0 1-2.1 5.6-4.6 10.3-6.9 12.9-40.5 69-41.3 69-.4 0-1.4-1.2-2.2-2.6-.8-1.5-4.4-5.4-8-8.8l-6.7-6.1 5-9c13.2-23.7 24.1-42.6 25-43.1C156.4 55 183.6 45 185.3 45c1 0 1.7.7 1.7 1.7zm-43.1 18c-7.8 14.4-23.1 41.8-23.5 42.2-.5.5-55.8 22.1-56.1 21.8-.3-.3 19.7-37.3 24.3-44.9 3.7-6 9-11.3 13.3-13 3.7-1.6 43.3-13.7 44.9-13.7.8-.1-.3 2.8-2.9 7.6zm-16.8 51.6c6.8 5.4 13.1 14.7 15.9 23.2 2.7 8 3.9 6.8-13 13.6-6.3 2.6-27.4 11.2-46.8 19.3-19.5 8-35.7 14.6-36 14.6-.4 0-2.4-3.2-4.5-7.1l-3.7-7.1 9.2-16.2c5-8.8 9.9-17.2 10.8-18.5 1.2-1.7 9.7-5.5 31.1-14.1 16.2-6.5 29.9-11.8 30.6-11.9.7-.1 3.6 1.8 6.4 4.2zm27.1 23.1c6.4 2 17.5 6.8 42.7 18.8 5.8 2.7 17.9 8.3 27 12.5 22 10 25.1 12.3 23.7 17.9-.9 3.6-7.5 7.5-44.1 26.3-54.2 27.8-52.8 27.2-58.6 27.8-7.1.7-11.8-1.2-39.6-16.3-12-6.5-31.7-16.9-43.8-23-12.1-6.2-23-12.1-24.2-13.2-2.9-2.6-2-5.2 1.6-5.2 1.9 0 3 .8 4.1 3.3 1.2 2.7 3.8 4.4 15 10.1 7.4 3.7 26.3 13.5 42 21.6 30.7 16 38.8 19.4 44.2 18.3 5.2-.9 16.6-6.3 52.8-24.6 42.8-21.7 46-23.7 46-28.3 0-3.1-3.3-4.9-32-17.9-12.9-5.9-26.6-12.1-30.4-13.8-9.9-4.6-32.2-15.5-31.6-15.6.3 0 2.6.6 5.2 1.3zm17.8 12.9c19.5 8.7 46.6 20.9 56.7 25.5 4.6 2 9.3 4.5 10.5 5.4 5 3.7.9 6.4-41.5 27.6-49.7 24.7-53.8 26.3-60.4 24.2-3.4-1.1-80.8-39.4-85.3-42.2-4.6-2.9-3.5-3.4 86.3-40.1 9-3.7 9.8-4.2 9.3-6.3-.9-3.5 1.8-4.4 6.2-2.3 2 .9 10.2 4.7 18.2 8.2z"/><path d="M135.9 157.4c-14.4 5.1-23.6 14.7-29.5 31-2 5.5-2.7 6.4-7.9 9.5-4.8 2.9-5.4 3.6-3.9 4.4 3.4 1.9 15.1 2.1 19.8.3 5.5-2.1 6.7-3.6 9.6-11.3 3.8-10.7 11.3-19.3 20.1-23.3 7.7-3.5 23.8-1.9 23.1 2.3-.2 1.1.4 1.7 1.7 1.7 1.1 0 4.3.9 7.1 2 6.6 2.6 7 2.5 7-.8 0-3.4-4.2-7.7-11.7-12.1-11.3-6.5-23.7-7.9-35.4-3.7zm17.7.5c-.3.4-2.8 1.1-5.5 1.4-12.2 1.4-24.8 11.3-31.5 24.7-2 4-3.6 7.9-3.6 8.6 0 2.1-1.8 1.7-2.5-.6-.9-3 1.1-9.1 5.3-15.6 8-12.4 19.5-18.9 34-19.3 2.4-.1 4.1.3 3.8.8zm12.9 3c1.3.5-1.2 1-7 1.3-18 .9-30.6 10.3-37.5 27.9-2.6 6.5-4 8.2-5.9 7-1.2-.8-1.2-1.6.4-5.8 5.4-14.6 15.4-25 28.4-29.8 3.9-1.5 18.4-1.8 21.6-.6z"/></svg>