<svg xmlns="http://www.w3.org/2000/svg" viewBox="0 0 100 100"><path d="M91.971 21.949l-13.92-13.92-2.549-2.55-2.551 2.55L8.03 72.951 5.48 75.5l2.55 2.551L21.949 91.97l2.55 2.551 2.55-2.551L91.97 27.05l2.549-2.55-2.548-2.551zM24.5 89.421L10.58 75.5l4.037-4.037 5.844 5.846 1.593-1.595-5.844-5.844 2.059-2.059 3.135 3.134 1.594-1.593-3.135-3.135 2.058-2.06 5.844 5.845 1.594-1.594-5.844-5.844 2.059-2.059 3.135 3.135 1.593-1.594-3.135-3.136 2.06-2.059 5.844 5.845 1.594-1.594-5.845-5.842 2.059-2.059 3.135 3.135 1.594-1.594-3.135-3.135 2.059-2.059 5.844 5.844 1.594-1.594-5.844-5.844 2.058-2.058 3.135 3.135 1.593-1.594-3.134-3.135 2.06-2.059 5.844 5.844 1.594-1.594-5.846-5.843 2.059-2.059 3.135 3.135 1.594-1.593-3.135-3.135 2.059-2.059 5.844 5.844 1.594-1.594-5.844-5.844 2.059-2.059 3.135 3.135 1.594-1.594-3.135-3.135 2.059-2.059 5.844 5.844 1.594-1.594-5.844-5.844 15.461-15.46 13.917 13.92L24.5 89.421z"/><path d="M71.916 27.607a5.131 5.131 0 0 0 7.25 0c2-2 2-5.252 0-7.251a5.131 5.131 0 0 0-7.25 0c-2 1.998-2 5.252 0 7.251zm5.338-5.339a2.422 2.422 0 1 1-3.426 3.427 2.422 2.422 0 1 1 3.426-3.427z"/></svg>